<?xml version="1.0" standalone="no"?>
<!DOCTYPE svg PUBLIC "-//W3C//DTD SVG 20010904//EN"
 "http://www.w3.org/TR/2001/REC-SVG-20010904/DTD/svg10.dtd">
<svg version="1.0" xmlns="http://www.w3.org/2000/svg"
 width="200.000000pt" height="111.000000pt" viewBox="0 0 200.000000 111.000000"
 preserveAspectRatio="xMidYMid meet">

<g transform="translate(0.000000,111.000000) scale(0.100000,-0.100000)"
fill="#000000" stroke="none">
<path d="M982 928 l3 -53 48 -3 c34 -2 58 3 85 18 27 15 51 20 82 18 l45 -3 3
-164 c3 -175 -1 -191 -45 -191 -38 0 -61 17 -68 51 -7 29 -29 48 -42 35 -10
-10 28 -96 47 -106 10 -6 39 -10 64 -10 36 0 48 5 65 26 19 25 21 40 21 189 0
194 -4 205 -87 212 -41 4 -59 1 -86 -16 -19 -11 -51 -21 -71 -21 -35 0 -36 1
-36 35 0 25 -4 35 -16 35 -12 0 -14 -10 -12 -52z"/>
<path d="M729 931 c-23 -18 -24 -26 -27 -167 -4 -167 4 -215 43 -232 62 -28
120 -6 144 54 25 64 36 73 99 76 72 4 70 22 -3 26 -71 4 -92 -9 -122 -74 -24
-53 -25 -54 -69 -54 -55 0 -56 1 -52 195 l3 150 53 3 c35 2 59 -2 74 -12 12
-9 28 -16 35 -16 25 0 13 29 -21 49 -44 28 -124 29 -157 2z"/>
<path d="M1110 820 c-11 -11 -20 -29 -20 -40 0 -11 9 -29 20 -40 11 -11 29
-20 40 -20 27 0 60 35 60 63 0 51 -63 74 -100 37z m60 -26 c11 -12 10 -18 -3
-32 -16 -15 -18 -15 -34 0 -13 14 -14 20 -3 32 7 9 16 16 20 16 4 0 13 -7 20
-16z"/>
<path d="M340 372 c-52 -53 -49 -161 6 -199 14 -10 43 -33 64 -51 42 -36 52
-39 70 -16 11 12 11 18 -2 30 -13 14 -12 18 12 42 51 51 47 159 -7 201 -40 32
-107 29 -143 -7z m110 -67 c14 -38 -2 -80 -33 -83 -21 -3 -29 2 -37 23 -12 32
-4 72 18 84 22 12 42 3 52 -24z"/>
<path d="M1284 385 c-3 -8 -4 -53 -3 -101 4 -79 6 -87 32 -110 37 -31 103 -33
141 -3 25 20 26 24 26 125 l0 104 -35 0 -35 0 0 -90 c0 -89 0 -90 -25 -90 -25
0 -25 1 -25 90 l0 90 -35 0 c-22 0 -38 -6 -41 -15z"/>
<path d="M560 256 c0 -96 8 -105 95 -104 55 1 66 4 71 21 3 10 1 24 -5 30 -6
6 -11 37 -11 69 0 58 0 58 -30 58 l-30 0 0 -60 c0 -46 -3 -60 -15 -60 -10 0
-15 15 -17 58 -3 54 -4 57 -30 60 l-28 3 0 -75z"/>
<path d="M770 305 c-53 -56 -15 -155 59 -155 45 0 66 13 57 35 -4 12 -13 15
-35 10 -16 -3 -32 -2 -35 3 -3 6 10 13 29 16 54 10 72 59 35 96 -28 28 -81 26
-110 -5z m70 -40 c0 -8 -7 -15 -15 -15 -16 0 -20 12 -8 23 11 12 23 8 23 -8z"/>
<path d="M920 262 c0 -84 16 -112 65 -112 19 0 37 5 40 10 5 8 11 7 21 -1 7
-6 21 -9 29 -5 17 6 21 56 5 56 -6 0 -10 27 -10 61 0 60 0 60 -27 57 -26 -3
-28 -7 -33 -61 -7 -77 -24 -77 -28 1 -3 61 -3 62 -32 62 l-30 0 0 -68z"/>
<path d="M1152 323 c-7 -3 -19 -18 -27 -33 -37 -71 -1 -140 73 -140 43 0 66
17 53 39 -5 8 -17 11 -30 6 -11 -3 -26 -3 -33 1 -7 5 3 12 28 19 34 9 39 15
42 44 4 43 -21 71 -62 70 -17 0 -37 -3 -44 -6z m53 -53 c3 -6 -1 -13 -10 -16
-19 -8 -30 0 -20 15 8 14 22 14 30 1z"/>
<path d="M1504 308 c-4 -14 -1 -25 10 -33 13 -10 16 -30 16 -98 0 -89 6 -103
40 -92 14 4 20 15 20 36 0 24 4 29 24 29 36 0 66 44 66 96 0 68 -47 102 -100
74 -13 -7 -21 -7 -25 0 -11 18 -43 11 -51 -12z m111 -73 c0 -16 -6 -30 -12
-32 -9 -3 -13 7 -13 32 0 25 4 35 13 33 6 -3 12 -17 12 -33z"/>
</g>
</svg>
